<?xml version="1.0" encoding="utf-8"?>
<!-- Generator: Adobe Illustrator 27.5.0, SVG Export Plug-In . SVG Version: 6.00 Build 0)  -->
<svg version="1.1" xmlns="http://www.w3.org/2000/svg" xmlns:xlink="http://www.w3.org/1999/xlink" x="0px" y="0px"
	 viewBox="0 0 500 500" style="enable-background:new 0 0 500 500;" xml:space="preserve">
<g id="Background_Complete">
	<g>
		<g>
			<rect y="382.398" style="fill:#EBEBEB;" width="500" height="0.25"/>
			<path style="fill:#EBEBEB;" d="M237.014,337.8H43.915c-3.147,0-5.708-2.561-5.708-5.708V60.66c0-3.147,2.561-5.708,5.708-5.708
				h193.099c3.146,0,5.707,2.561,5.707,5.708v271.432C242.721,335.239,240.16,337.8,237.014,337.8z M43.915,55.203
				c-3.01,0-5.458,2.448-5.458,5.458v271.432c0,3.01,2.448,5.458,5.458,5.458h193.099c3.009,0,5.457-2.448,5.457-5.458V60.66
				c0-3.009-2.448-5.458-5.457-5.458H43.915z"/>
			<path style="fill:#EBEBEB;" d="M453.31,337.8H260.212c-3.147,0-5.707-2.561-5.707-5.708V60.66c0-3.147,2.561-5.708,5.707-5.708
				H453.31c3.148,0,5.708,2.561,5.708,5.708v271.432C459.019,335.239,456.458,337.8,453.31,337.8z M260.212,55.203
				c-3.009,0-5.457,2.448-5.457,5.458v271.432c0,3.01,2.448,5.458,5.457,5.458H453.31c3.01,0,5.458-2.448,5.458-5.458V60.66
				c0-3.009-2.448-5.458-5.458-5.458H260.212z"/>
		</g>
		<g>
			<rect x="418.333" y="391.922" style="fill:#EBEBEB;" width="31.568" height="0.25"/>
			<rect x="301.926" y="389.208" style="fill:#EBEBEB;" width="33.408" height="0.25"/>
			<rect x="396.586" y="401.208" style="fill:#EBEBEB;" width="62.433" height="0.25"/>
			<rect x="52.459" y="399.528" style="fill:#EBEBEB;" width="19.235" height="0.25"/>
			<rect x="80.597" y="399.528" style="fill:#EBEBEB;" width="30.292" height="0.25"/>
			<rect x="189.578" y="395.306" style="fill:#EBEBEB;" width="54.556" height="0.25"/>
		</g>
	</g>
	<g>
		<g>
			<g>
				
					<rect x="149.324" y="76.886" transform="matrix(-1 -1.224647e-16 1.224647e-16 -1 584.5721 312.9498)" style="fill:#E0E0E0;" width="285.923" height="159.178"/>
				
					<rect x="133.624" y="76.886" transform="matrix(-1 -1.224647e-16 1.224647e-16 -1 567.4281 312.9498)" style="fill:#F5F5F5;" width="300.181" height="159.178"/>
				
					<rect x="209.029" y="11.289" transform="matrix(-1.836970e-16 1 -1 -1.836970e-16 440.1887 -127.2391)" style="fill:#FFFFFF;" width="149.37" height="290.371"/>
				<polygon style="fill:#F5F5F5;" points="311.33,231.16 256.508,81.79 346.984,81.79 401.806,231.16 				"/>
				<polygon style="fill:#F5F5F5;" points="224.241,231.16 169.419,81.79 237.67,81.79 292.492,231.16 				"/>
			</g>
		</g>
		<g>
			
				<rect x="54.178" y="105.173" transform="matrix(-1 -1.224647e-16 1.224647e-16 -1 165.8829 287.5506)" style="fill:#E6E6E6;" width="57.526" height="77.205"/>
			
				<rect x="50.168" y="105.173" transform="matrix(-1 -1.224647e-16 1.224647e-16 -1 161.004 287.5506)" style="fill:#F0F0F0;" width="60.668" height="77.205"/>
			
				<rect x="46.982" y="118.524" transform="matrix(-1.836970e-16 1 -1 -1.836970e-16 224.2773 63.2732)" style="fill:#FFFFFF;" width="67.04" height="50.503"/>
			<g>
				<path style="fill:#F0F0F0;" d="M80.847,161.503l9.27-9.27c4.663-4.663,4.663-12.251,0-16.915l-9.27-9.27
					c-0.19-0.19-0.5-0.19-0.69,0l-9.269,9.269c-4.664,4.663-4.664,12.251,0,16.915l9.27,9.27
					C80.348,161.693,80.657,161.693,80.847,161.503z M80.502,127.084l8.924,8.924c4.283,4.283,4.283,11.251,0,15.534l-8.924,8.924
					l-8.924-8.924c-4.283-4.283-4.283-11.251,0-15.534L80.502,127.084z"/>
			</g>
		</g>
		<g>
			<g>
				
					<rect x="403.033" y="267.212" transform="matrix(-1 -1.224647e-16 1.224647e-16 -1 819.5914 645.9703)" style="fill:#F0F0F0;" width="13.526" height="111.546"/>
				
					<rect x="224.529" y="378.758" transform="matrix(-1 -1.224647e-16 1.224647e-16 -1 639.2132 761.1563)" style="fill:#F0F0F0;" width="190.156" height="3.641"/>
				<rect x="222.655" y="267.212" style="fill:#FAFAFA;" width="180.378" height="111.546"/>
				<path style="fill:#F0F0F0;" d="M379.52,332.394H246.167c-7.173,0-13.008-5.836-13.008-13.009
					c0-7.173,5.835-13.009,13.008-13.009H379.52c7.173,0,13.009,5.836,13.009,13.009
					C392.528,326.558,386.692,332.394,379.52,332.394z M246.167,307.25c-6.691,0-12.135,5.443-12.135,12.135
					s5.443,12.135,12.135,12.135H379.52c6.691,0,12.136-5.444,12.136-12.135s-5.444-12.135-12.136-12.135H246.167z"/>
				<path style="fill:#F0F0F0;" d="M379.52,364.757H246.167c-7.173,0-13.008-5.836-13.008-13.009
					c0-7.173,5.835-13.009,13.008-13.009H379.52c7.173,0,13.009,5.836,13.009,13.009
					C392.528,358.921,386.692,364.757,379.52,364.757z M246.167,339.613c-6.691,0-12.135,5.443-12.135,12.135
					c0,6.691,5.443,12.135,12.135,12.135H379.52c6.691,0,12.136-5.443,12.136-12.135c0-6.691-5.444-12.135-12.136-12.135H246.167z"
					/>
				<path style="fill:#EBEBEB;" d="M271.677,316.579h82.334c1.493,0,2.714-1.221,2.714-2.714l0,0c0-1.493-1.221-2.714-2.714-2.714
					h-82.334c-1.493,0-2.714,1.221-2.714,2.714l0,0C268.963,315.358,270.184,316.579,271.677,316.579z"/>
				<path style="fill:#F0F0F0;" d="M379.52,300.031H246.167c-7.173,0-13.008-5.836-13.008-13.009
					c0-7.173,5.835-13.009,13.008-13.009H379.52c7.173,0,13.009,5.836,13.009,13.009
					C392.528,294.195,386.692,300.031,379.52,300.031z M246.167,274.887c-6.691,0-12.135,5.443-12.135,12.135
					s5.443,12.135,12.135,12.135H379.52c6.691,0,12.136-5.444,12.136-12.135s-5.444-12.135-12.136-12.135H246.167z"/>
				<path style="fill:#EBEBEB;" d="M271.677,284.217h82.334c1.493,0,2.714-1.221,2.714-2.714l0,0c0-1.493-1.221-2.714-2.714-2.714
					h-82.334c-1.493,0-2.714,1.221-2.714,2.714l0,0C268.963,282.995,270.184,284.217,271.677,284.217z"/>
				<path style="fill:#EBEBEB;" d="M271.677,348.942h82.334c1.493,0,2.714-1.221,2.714-2.714l0,0c0-1.493-1.221-2.714-2.714-2.714
					h-82.334c-1.493,0-2.714,1.221-2.714,2.714l0,0C268.963,347.721,270.184,348.942,271.677,348.942z"/>
			</g>
			
				<rect x="220.185" y="261.542" transform="matrix(-1 -1.224647e-16 1.224647e-16 -1 623.2176 528.7548)" style="fill:#F0F0F0;" width="182.848" height="5.67"/>
			<rect x="403.033" y="261.542" style="fill:#E6E6E6;" width="16.176" height="5.67"/>
		</g>
		<g>
			<g>
				<g>
					<path style="fill:#E6E6E6;" d="M85.722,336.484h47.438l4.522-78.561c0.112-1.946-1.375-3.524-3.321-3.524H93.97
						c-1.946,0-3.615,1.578-3.727,3.524L85.722,336.484z"/>
					<path style="fill:#F5F5F5;" d="M80.933,336.484h47.438l4.522-78.561c0.112-1.946-1.375-3.524-3.321-3.524h-40.39
						c-1.946,0-3.615,1.578-3.727,3.524L80.933,336.484z"/>
					<path style="fill:#E6E6E6;" d="M94.397,336.484h36.55v-6.275c0-1.946-1.578-3.524-3.524-3.524H94.397V336.484z"/>
					<path style="fill:#F5F5F5;" d="M56.111,336.484h49.088v-6.275c0-1.946-1.578-3.524-3.524-3.524h-42.04
						c-1.946,0-3.524,1.578-3.524,3.524V336.484z"/>
				</g>
				<g>
					
						<rect x="129.907" y="336.484" transform="matrix(-1 -1.224647e-16 1.224647e-16 -1 263.0665 718.882)" style="fill:#E6E6E6;" width="3.253" height="45.915"/>
					
						<rect x="106.035" y="336.484" transform="matrix(-1 -1.224647e-16 1.224647e-16 -1 215.3221 718.882)" style="fill:#E6E6E6;" width="3.253" height="45.915"/>
					
						<rect x="80.729" y="336.484" transform="matrix(-1 -1.224647e-16 1.224647e-16 -1 164.7103 718.882)" style="fill:#E6E6E6;" width="3.253" height="45.915"/>
					
						<rect x="56.856" y="336.484" transform="matrix(-1 -1.224647e-16 1.224647e-16 -1 116.9659 718.882)" style="fill:#E6E6E6;" width="3.253" height="45.915"/>
				</g>
			</g>
			<g>
				<g>
					<path style="fill:#E6E6E6;" d="M146.442,336.484h47.438l4.522-78.561c0.112-1.946-1.375-3.524-3.321-3.524h-40.39
						c-1.946,0-3.615,1.578-3.727,3.524L146.442,336.484z"/>
					<path style="fill:#F5F5F5;" d="M141.653,336.484h47.438l4.522-78.561c0.112-1.946-1.375-3.524-3.321-3.524h-40.39
						c-1.946,0-3.615,1.578-3.727,3.524L141.653,336.484z"/>
					<path style="fill:#E6E6E6;" d="M155.117,336.484h36.55v-6.275c0-1.946-1.578-3.524-3.524-3.524h-33.026V336.484z"/>
					<path style="fill:#F5F5F5;" d="M116.832,336.484h49.088v-6.275c0-1.946-1.578-3.524-3.524-3.524h-42.04
						c-1.946,0-3.524,1.578-3.524,3.524V336.484z"/>
				</g>
				<g>
					
						<rect x="190.628" y="336.484" transform="matrix(-1 -1.224647e-16 1.224647e-16 -1 384.5079 718.882)" style="fill:#E6E6E6;" width="3.253" height="45.915"/>
					
						<rect x="166.755" y="336.484" transform="matrix(-1 -1.224647e-16 1.224647e-16 -1 336.7635 718.882)" style="fill:#E6E6E6;" width="3.253" height="45.915"/>
					
						<rect x="141.449" y="336.484" transform="matrix(-1 -1.224647e-16 1.224647e-16 -1 286.1517 718.882)" style="fill:#E6E6E6;" width="3.253" height="45.915"/>
					
						<rect x="117.577" y="336.484" transform="matrix(-1 -1.224647e-16 1.224647e-16 -1 238.4071 718.882)" style="fill:#E6E6E6;" width="3.253" height="45.915"/>
				</g>
			</g>
		</g>
	</g>
</g>
<g id="Background_Simple" style="display:none;">
	<g style="display:inline;">
		<g>
			<path style="fill:#407BFF;" d="M100.107,326.314c16.093,8.176,48.512,8.036,65.598-1.551
				c21.818-12.241,18.807-30.006,34.055-44.055c41.176-37.939,89.215-25.98,138.214-21.569
				c108.592,9.777,161.008-110.865,49.565-159.32C320.55,70.693,186.606,64.635,185.061,173.9
				c-0.668,47.226,22.662,46.634-29.314,66.202C135.237,247.823,27.215,289.282,100.107,326.314z"/>
		</g>
		<path style="opacity:0.9;fill:#FFFFFF;" d="M100.107,326.314c16.093,8.176,48.512,8.036,65.598-1.551
			c21.818-12.241,18.807-30.006,34.055-44.055c41.176-37.939,89.215-25.98,138.214-21.569
			c108.592,9.777,161.008-110.865,49.565-159.32C320.55,70.693,186.606,64.635,185.061,173.9
			c-0.668,47.226,22.662,46.634-29.314,66.202C135.237,247.823,27.215,289.282,100.107,326.314z"/>
	</g>
</g>
<g id="Shadow_1_">
	<ellipse id="_x3C_Path_x3E__210_" style="fill:#F5F5F5;" cx="250" cy="416.238" rx="193.889" ry="11.323"/>
</g>
<g id="Obj_1">
	<g>
		<g>
			<g>
				<path style="fill:#407BFF;" d="M291.294,142.749c-0.248,0-0.464-0.185-0.495-0.438c-0.034-0.274,0.16-0.524,0.435-0.558
					l16.923-2.112c0.27-0.035,0.523,0.16,0.558,0.434c0.034,0.274-0.16,0.524-0.435,0.558l-16.923,2.112
					C291.336,142.747,291.315,142.749,291.294,142.749z"/>
				<path style="fill:#407BFF;" d="M308.162,146.072c-0.028,0-0.057-0.003-0.085-0.007l-16.809-2.879
					c-0.273-0.046-0.455-0.305-0.409-0.577c0.047-0.273,0.309-0.455,0.577-0.408l16.81,2.879c0.273,0.046,0.455,0.305,0.409,0.577
					C308.612,145.9,308.4,146.072,308.162,146.072z"/>
				<path style="fill:#263238;" d="M269.694,118.667c-5.837-2.167-14.754,11.756-10.976,26.5c6.389-5.333,15.244-6.504,18.542-4.333
					c4.778,3.145,0.74,3,3.21,9.667c2.47,6.667,23.817,5.389,15.539-9.5C308.509,115.611,273.718,103.613,269.694,118.667z"/>
				<path style="fill:#B55B52;" d="M228.835,173.551l2.24,1.91c0.842,0.719,1.285,1.8,1.189,2.903l-0.449,5.154
					c-0.179,2.061-1.346,3.906-3.129,4.953l-1.104,0.648c-3.931-2.915-6.032-8.961-6.032-8.961l-0.79-1.657
					c-0.703-1.476-0.153-3.152,1.264-3.851l3.263-1.608C226.414,172.489,227.826,172.691,228.835,173.551z"/>
				<path style="fill:#B55B52;" d="M263.446,180.98c-0.306,0.788-0.535,1.342-0.807,1.976c-0.262,0.615-0.545,1.209-0.822,1.805
					c-0.553,1.19-1.167,2.341-1.778,3.491c-1.254,2.282-2.607,4.511-4.103,6.66c-0.734,1.082-1.521,2.136-2.309,3.188
					c-0.828,1.029-1.64,2.064-2.527,3.059c-1.704,2.027-3.658,3.896-5.657,5.706l-0.273,0.247c-0.238,0.216-0.515,0.415-0.781,0.573
					c-0.996,0.585-2.31,1.123-3.804,1.298c-1.484,0.19-3.06-0.042-4.271-0.517c-2.453-0.981-3.7-2.358-4.68-3.499
					c-0.969-1.174-1.604-2.292-2.156-3.38c-0.542-1.087-0.992-2.136-1.372-3.182c-0.748-2.091-1.29-4.132-1.707-6.177
					c-0.408-2.063-0.71-4.041-0.852-6.201c-0.128-1.936,1.337-3.608,3.273-3.737c1.42-0.094,2.698,0.669,3.329,1.846l0.097,0.183
					c0.851,1.592,1.714,3.322,2.595,4.919c0.881,1.612,1.776,3.184,2.717,4.589c0.467,0.701,0.929,1.367,1.401,1.936
					c0.467,0.562,0.944,1.045,1.289,1.302c0.328,0.276,0.607,0.201-0.003-0.133c-0.295-0.154-0.878-0.286-1.402-0.231
					c-0.531,0.042-0.925,0.207-1.099,0.279l-1.053,0.821c1.4-1.6,2.767-3.231,4.038-4.995c1.268-1.756,2.489-3.569,3.633-5.451
					c1.135-1.885,2.25-3.797,3.273-5.759c0.518-0.977,1.009-1.967,1.499-2.947l0.707-1.468l0.627-1.339l0.163-0.348
					c1.634-3.487,5.785-4.989,9.272-3.355C263.243,173.703,264.754,177.594,263.446,180.98z"/>
				<path style="fill:#263238;" d="M320.683,387.176c1.55-7.014,1.156-8.656,2.419-12.5c1.075-3.298,1.158-3.101,2.82-6.19
					c1.102-2.046-0.993-3.677-3.081-3.939c-1.626-0.204-3.351-0.278-5.348-0.596l-4.324,8.058c2.282,2.897,4.105,9.968,3.297,15.385
					C315.897,391.27,320.057,389.984,320.683,387.176z"/>
				<path style="fill:#407BFF;" d="M251.046,220.399c0,0-1.143,59.276-2.353,92.111c-3.178,19.436,63.642,59.898,63.642,59.898
					c1.43,0.678,5.212-6.73,5.158-8.457c0,0-28.737-42.331-45.861-52.553c18.95-52.444,13.801-91,13.801-91H251.046z"/>
				<path style="opacity:0.2;" d="M285.429,220.403h-21.687c0,0,4.335,57.94,9.167,87.36
					C290.339,257.183,285.429,220.403,285.429,220.403z"/>
				<path style="opacity:0.2;" d="M298.839,338.813c-8.23-10.27-17.75-20.96-25.4-26.24c1.09,10.16,2.21,22.42,3.07,34.97
					c7.19,5.69,14.65,10.98,20.89,15.21C298.389,354.733,298.979,346.523,298.839,338.813z"/>
				<g>
					<path style="fill:#407BFF;" d="M308.143,370.942c0.872,0.625,2.422,1.748,3.539,2.622c0.37,0.289,0.892,0.223,1.189-0.14
						c2.226-2.722,4.773-7.739,5.59-9.399c0.162-0.329,0.094-0.721-0.166-0.979l-2.799-2.781c-0.382-0.379-1.015-0.315-1.313,0.133
						l-6.247,9.38C307.68,370.161,307.769,370.674,308.143,370.942z"/>
					<path style="opacity:0.3;fill:#FFFFFF;" d="M308.143,370.942c0.872,0.625,2.422,1.748,3.539,2.622
						c0.37,0.289,0.892,0.223,1.189-0.14c2.226-2.722,4.773-7.739,5.59-9.399c0.162-0.329,0.094-0.721-0.166-0.979l-2.799-2.781
						c-0.382-0.379-1.015-0.315-1.313,0.133l-6.247,9.38C307.68,370.161,307.769,370.674,308.143,370.942z"/>
				</g>
				<path style="fill:#263238;" d="M275.927,421.072c7.309,0,6.792-0.113,10.911-0.251c3.528-0.126,4.329,0.314,7.161,0.251
					c2.366-0.05,2.483-2.311,1.991-4.911c-0.245-1.306-0.665-2.901-0.976-5.011h-11.102c-1.769,2.876-4.967,5.036-9.136,5.589
					C270.797,417.267,273.013,421.072,275.927,421.072z"/>
				<path style="fill:#407BFF;" d="M261.357,220.399c0,0,11.484,63.204,15.689,91.85c4.417,30.085,9.86,78.916,6.866,98.902
					c1.622,0.994,7.634,1.055,11.102,0c0,0,17.544-68.609,2.888-97.572c8.34-70.402-3.994-74.069-7.403-93.18H261.357z"/>
				<g>
					<path style="fill:#407BFF;" d="M283.452,406.988c-0.124,1.008-0.375,2.764-0.759,4.105c-0.138,0.484,0.147,0.932,0.626,1.01
						c4.004,0.651,9.971-0.292,11.868-0.628c0.363-0.064,0.66-0.348,0.75-0.707l0.955-3.84c0.131-0.525-0.238-0.997-0.77-0.987
						l-11.757,0.226C283.908,406.176,283.508,406.534,283.452,406.988z"/>
					<path style="opacity:0.3;fill:#FFFFFF;" d="M283.452,406.988c-0.124,1.008-0.375,2.764-0.759,4.105
						c-0.138,0.484,0.147,0.932,0.626,1.01c4.004,0.651,9.971-0.292,11.868-0.628c0.363-0.064,0.66-0.348,0.75-0.707l0.955-3.84
						c0.131-0.525-0.238-0.997-0.77-0.987l-11.757,0.226C283.908,406.176,283.508,406.534,283.452,406.988z"/>
				</g>
				<path style="fill:#263238;" d="M260.354,165.042c-7.281,1.372-8.821,4.348-14.182,15.404
					c1.618,7.274,10.321,13.669,10.321,13.669S272.359,174.445,260.354,165.042z"/>
				<path style="fill:#263238;" d="M248.811,178.818c-0.12,3.879,0.261,8.569,1.132,17.803c0.588,7.821-1.36,22.689,1.103,23.778
					h39.453c0.795-11.2,0.502-18.913,7.586-43.92c1.643-5.798-2.021-11.366-7.869-11.96c-1.563-0.159-3.221-0.291-4.922-0.373
					c-6.615-0.32-12.039-0.532-17.915,0.001c-1.948,0.176-3.965,0.422-5.895,0.689C254.521,165.803,249.026,171.866,248.811,178.818
					z"/>
				<path style="fill:#B55B52;" d="M284.037,143.974c-1.56,5.764-3.474,16.326,0.272,20.172c0,0-5.46-0.82-17.052,6.349
					c-3.357-4.814-0.863-6.349-0.863-6.349c6.542-1.535,6.732-6.304,5.946-10.783L284.037,143.974z"/>
				<path style="fill:#FFFFFF;" d="M269.694,169.052c3.818,0.543,5.014,6.31,5.014,6.31s9.17-6.486,12.076-11.061
					c-1.361-0.713-3.349-2.126-3.349-2.126S271.923,166.848,269.694,169.052z"/>
				<path style="fill:#FFFFFF;" d="M266.065,168.438c0,0-3.031,0.656-4.552,4.872c-0.874-8.407,3.112-9.181,3.112-9.181
					s1.198-0.855,3.452-0.499C265.049,165.227,266.065,168.438,266.065,168.438z"/>
				<path style="opacity:0.2;" d="M279.268,147.805l-6.923,5.554c0.19,1.06,0.318,2.135,0.315,3.18
					c2.482-0.355,6.056-3.05,6.508-5.622C279.394,149.635,279.432,148.402,279.268,147.805z"/>
				<path style="fill:#B55B52;" d="M291.745,136.313c-3.4,8.839-4.649,12.642-10.678,16.075c-9.069,5.164-19.224-0.311-18.544-9.833
					c0.612-8.571,6.069-21.587,16.057-22.879C288.419,118.403,295.145,127.474,291.745,136.313z"/>
				<path style="fill:#263238;" d="M269.694,119.889c0.719,4.75,15.355,9.435,18.135,8.861c-3.5,3.111-1.111,16.861,6.333,12.639
					C296.107,125.333,286.725,111.056,269.694,119.889z"/>
				<path style="opacity:0.2;" d="M278.961,135.523c0,0,2.103-0.637,3.619,0.391C280.575,136.096,278.961,135.523,278.961,135.523z"
					/>
				<path style="opacity:0.2;" d="M278.926,136.391c0,0,1.998-0.17,3.088,1.163C280.209,137.299,278.926,136.391,278.926,136.391z"
					/>
				<path style="fill:#263238;" d="M276.963,135.178c-0.253,0.754-0.855,1.262-1.344,1.135c-0.489-0.128-0.681-0.842-0.427-1.596
					s0.855-1.262,1.344-1.135C277.025,133.71,277.216,134.424,276.963,135.178z"/>
				<path style="fill:#263238;" d="M267.714,132.912c-0.253,0.754-0.855,1.262-1.344,1.135c-0.489-0.128-0.681-0.842-0.427-1.597
					c0.253-0.754,0.855-1.262,1.344-1.135C267.776,131.443,267.967,132.158,267.714,132.912z"/>
				<path style="fill:#263238;" d="M267.488,131.413l-1.622-0.991C265.866,130.423,266.313,132.078,267.488,131.413z"/>
				<path style="fill:#A02724;" d="M269.864,134.818c0,0-2.36,2.916-4.284,4.118c0.676,1.187,2.499,1.2,2.499,1.2L269.864,134.818z"
					/>
				<path style="fill:#263238;" d="M271.447,144.045c-0.411-0.032-0.842-0.101-1.292-0.218c-0.121-0.032-0.186-0.156-0.145-0.279
					c0.041-0.122,0.169-0.195,0.295-0.164c3.282,0.858,5.595-1.056,5.618-1.075c0.101-0.086,0.247-0.079,0.326,0.014
					c0.079,0.093,0.062,0.238-0.038,0.323C276.121,142.721,274.259,144.263,271.447,144.045z"/>
				<path style="fill:#B55B52;" d="M291.782,143.869c-1.267,1.717-3.01,2.607-4.494,2.737c-2.232,0.195-2.732-2.413-1.596-4.733
					c1.023-2.088,3.416-4.705,5.409-3.811C293.064,138.943,293.231,141.906,291.782,143.869z"/>
				<path style="fill:#263238;" d="M280.096,131.326c-0.113-0.042-0.207-0.128-0.252-0.246c-0.697-1.853-2.372-2.163-2.391-2.166
					c-0.248-0.045-0.406-0.278-0.345-0.524c0.061-0.245,0.315-0.409,0.568-0.365c0.088,0.016,2.19,0.402,3.055,2.702
					c0.086,0.229-0.043,0.494-0.287,0.592C280.326,131.365,280.202,131.365,280.096,131.326z"/>
				<path style="fill:#263238;" d="M266.112,127.914c-0.112-0.025-0.211-0.091-0.273-0.192c-0.128-0.209-0.049-0.489,0.177-0.625
					c2.26-1.367,4.199-0.551,4.281-0.514c0.231,0.101,0.321,0.367,0.202,0.595c-0.119,0.228-0.402,0.331-0.632,0.232
					c-0.076-0.033-1.59-0.644-3.387,0.443C266.362,127.923,266.23,127.941,266.112,127.914z"/>
				<path style="fill:#263238;" d="M276.738,133.68l-1.622-0.991C275.116,132.689,275.563,134.345,276.738,133.68z"/>
				<path style="fill:#B55B52;" d="M301.879,174.678c0.354,0.768,0.594,1.317,0.861,1.953c0.261,0.616,0.491,1.232,0.727,1.845
					c0.472,1.225,0.873,2.465,1.276,3.704c0.771,2.487,1.434,5.009,1.941,7.577c0.268,1.279,0.48,2.578,0.689,3.875
					c0.165,1.311,0.345,2.614,0.445,3.942c0.274,2.634,0.261,5.338,0.175,8.033l-0.012,0.368c-0.01,0.321-0.059,0.659-0.13,0.96
					c-0.271,1.123-0.797,2.441-1.709,3.637c-0.894,1.199-2.156,2.172-3.339,2.713c-2.41,1.083-4.266,1.024-5.768,0.936
					c-1.517-0.119-2.764-0.438-3.93-0.797c-1.159-0.365-2.226-0.77-3.242-1.224c-2.024-0.915-3.868-1.942-5.629-3.063
					c-1.768-1.14-3.399-2.296-5.052-3.694c-1.481-1.252-1.667-3.468-0.414-4.95c0.919-1.086,2.355-1.476,3.64-1.112l0.199,0.058
					c1.737,0.494,3.58,1.075,5.342,1.55c1.772,0.486,3.524,0.935,5.188,1.234c0.829,0.151,1.629,0.282,2.366,0.337
					c0.728,0.054,1.407,0.047,1.832-0.022c0.426-0.044,0.566-0.297-0.097-0.09c-0.316,0.105-0.816,0.433-1.14,0.848
					c-0.339,0.411-0.494,0.809-0.563,0.984l-0.142,1.327c-0.178-2.118-0.402-4.235-0.789-6.375c-0.383-2.132-0.838-4.27-1.397-6.4
					c-0.567-2.126-1.168-4.256-1.869-6.355c-0.343-1.051-0.714-2.092-1.078-3.126l-0.565-1.528l-0.527-1.382l-0.137-0.359
					c-1.373-3.598,0.43-7.627,4.028-9.001C296.503,169.768,300.352,171.385,301.879,174.678z"/>
				<path style="fill:#263238;" d="M290.583,164.567c6.423,0.992,8.998,2.946,14.246,15.854c-2.382,4.814-13.534,9.419-13.534,9.419
					S282.551,173.966,290.583,164.567z"/>
			</g>
		</g>
		<g>
			<path style="fill:#407BFF;" d="M220.042,294.58l-1.709-7.281c-4.306-18.35,0.857-36.883,5.849-54.806
				c4.334-15.559,8.427-30.254,5.473-42.843l2.264-0.531c3.09,13.169-1.081,28.144-5.497,43.998
				c-4.913,17.641-9.994,35.881-5.824,53.651l1.709,7.281L220.042,294.58z"/>
			<g>
				
					<ellipse transform="matrix(0.0797 -0.9968 0.9968 0.0797 -47.6939 314.2441)" style="fill:#407BFF;" cx="146.342" cy="182.952" rx="71.43" ry="71.43"/>
				
					<ellipse transform="matrix(0.0797 -0.9968 0.9968 0.0797 -47.6939 314.2441)" style="opacity:0.2;" cx="146.342" cy="182.952" rx="71.43" ry="71.43"/>
				<path style="fill:#FFFFFF;" d="M154.08,240.845c-15.179,0-28.96-10.418-32.574-25.82c-4.214-17.962,6.971-36.003,24.932-40.218
					c17.959-4.215,36.004,6.968,40.219,24.931l0,0c4.214,17.962-6.971,36.004-24.932,40.218
					C159.165,240.557,156.602,240.845,154.08,240.845z M154.083,176.244c-2.349,0-4.731,0.268-7.114,0.827
					c-16.714,3.922-27.121,20.711-23.199,37.424c3.921,16.713,20.713,27.12,37.424,23.2c16.714-3.922,27.121-20.71,23.199-37.424
					l0,0C181.03,185.939,168.206,176.244,154.083,176.244z"/>
			</g>
			<g>
				<g>
					<path style="fill:#407BFF;" d="M148.472,121.341l24.62,104.926c1.719,7.325,9.05,11.87,16.375,10.151l71.439-16.763
						c5.854-1.374,10.093-6.423,10.492-12.423c0.622-9.367-0.11-18.985-2.369-28.612c-11.68-49.777-59.7-81.567-109.41-73.858
						C151.79,105.977,146.662,113.627,148.472,121.341z"/>
					<path style="opacity:0.4;fill:#FFFFFF;" d="M148.472,121.341l24.62,104.926c1.719,7.325,9.05,11.87,16.375,10.151
						l71.439-16.763c5.854-1.374,10.093-6.423,10.492-12.423c0.622-9.367-0.11-18.985-2.369-28.612
						c-11.68-49.777-59.7-81.567-109.41-73.858C151.79,105.977,146.662,113.627,148.472,121.341z"/>
				</g>
			</g>
			<g>
				<path style="fill:#407BFF;" d="M238.107,311.946l-67.51,15.841c-1.685,0.395-3.411-0.475-4.095-2.065l-5.989-13.918
					c-0.878-2.041,0.301-4.379,2.464-4.887l72.671-17.052c2.163-0.508,4.259,1.063,4.381,3.281l0.827,15.129
					C240.951,310.004,239.792,311.551,238.107,311.946z"/>
				<path style="fill:#407BFF;" d="M233.213,322.962l-53.333,12.514c-1.72,0.404-3.476-0.511-4.131-2.152l-4.826-12.087
					c-0.81-2.028,0.374-4.301,2.5-4.8l57.106-13.399c2.126-0.499,4.197,1.01,4.374,3.187l1.054,12.972
					C236.099,320.958,234.933,322.558,233.213,322.962z"/>
				<path style="fill:#407BFF;" d="M227.931,333.213l-38.762,9.095c-1.76,0.413-3.552-0.555-4.171-2.255l-3.822-10.499
					c-0.732-2.01,0.457-4.208,2.539-4.697l41.337-9.699c2.083-0.489,4.125,0.951,4.364,3.077l1.247,11.103
					C230.865,331.136,229.692,332.8,227.931,333.213z"/>
			</g>
			<path style="fill:#407BFF;" d="M207.023,194.96c-3.921-16.713-20.71-27.12-37.424-23.2l-0.531-2.263
				c17.971-4.214,36.005,6.971,40.219,24.931L207.023,194.96z"/>
			<polygon style="opacity:0.2;fill:#FFFFFF;" points="165.1,115.729 130.698,127.503 130.191,130.344 133.133,132.364 
				132.569,135.455 135.071,138.015 135.046,140.777 169.038,129.143 170.042,126.349 167.028,123.834 167.333,120.529 
				164.716,118.744 			"/>
			<path style="fill:#407BFF;" d="M199.28,230.233c-6.155,0.001-12.204-1.71-17.566-5.034c-7.596-4.709-12.903-12.094-14.945-20.795
				c-4.214-17.962,6.971-36.003,24.932-40.218c8.7-2.044,17.677-0.572,25.273,4.136c7.596,4.709,12.903,12.094,14.945,20.795
				c2.042,8.701,0.573,17.676-4.136,25.272c-4.709,7.596-12.094,12.904-20.795,14.945
				C204.429,229.936,201.845,230.233,199.28,230.233z M199.402,165.615c-2.387,0-4.79,0.276-7.171,0.835
				c-16.714,3.922-27.121,20.71-23.199,37.424c1.899,8.097,6.838,14.969,13.906,19.351c7.069,4.381,15.418,5.749,23.518,3.849
				c8.097-1.9,14.969-6.839,19.35-13.908c4.381-7.068,5.748-15.42,3.848-23.516l0,0c-1.899-8.097-6.838-14.969-13.906-19.351
				C210.759,167.206,205.129,165.615,199.402,165.615z"/>
			<g>
				<g>
					<polygon style="fill:#407BFF;" points="188.189,208.691 210.092,282.874 125.923,307.725 101.071,223.556 154.23,207.86 					
						"/>
					<polygon style="opacity:0.8;fill:#FFFFFF;" points="188.189,208.691 210.092,282.874 125.923,307.725 101.071,223.556 
						154.23,207.86 					"/>
				</g>
				<polygon style="fill:#407BFF;" points="188.189,208.691 169.349,221.424 154.23,207.86 				"/>
			</g>
			<path style="fill:#407BFF;" d="M128.042,225.634c0.426,1.457,1.002,2.844,1.743,4.141c0.755,1.29,1.661,2.499,2.714,3.636
				c2.092,2.281,4.644,4.341,7.135,6.55c2.504,2.197,4.963,4.533,7.228,7.046c1.137,1.252,2.223,2.552,3.266,3.882
				c1.049,1.327,2.021,2.576,3.067,3.848c4.106,5.073,8.615,9.876,12.663,15.252c1.999,2.7,3.922,5.52,5.484,8.566
				c1.586,3.031,2.813,6.264,3.64,9.575c0.208,0.832-0.298,1.676-1.13,1.883c-0.793,0.198-1.596-0.252-1.85-1.015l-0.004-0.013
				c-2-6.062-5.29-11.52-9.297-16.587c-3.981-5.087-8.375-10.033-12.482-15.276c-1.03-1.288-2.046-2.669-3.038-3.931
				c-0.986-1.267-2.011-2.502-3.086-3.693c-2.143-2.392-4.463-4.613-6.906-6.771c-2.427-2.174-5.028-4.264-7.395-6.85
				c-1.182-1.286-2.267-2.727-3.169-4.287c-0.892-1.567-1.58-3.248-2.072-4.957c-0.277-0.963,0.279-1.969,1.243-2.246
				c0.963-0.277,1.969,0.279,2.246,1.243L128.042,225.634z"/>
			<path style="fill:#407BFF;" d="M208.52,353.66c-2.924,0-5.797-0.812-8.344-2.391c-3.608-2.237-6.13-5.745-7.1-9.878
				c-0.97-4.133-0.271-8.397,1.965-12.004c2.237-3.608,5.745-6.129,9.878-7.099c8.529-2.004,17.101,3.311,19.104,11.842l0,0
				c0.97,4.133,0.272,8.396-1.965,12.004c-2.236,3.608-5.744,6.129-9.877,7.099C210.966,353.519,209.739,353.66,208.52,353.66z
				 M208.576,324.186c-1.04,0-2.087,0.121-3.125,0.364c-3.528,0.828-6.523,2.98-8.434,6.061c-1.909,3.081-2.505,6.72-1.677,10.249
				c1.708,7.285,9.033,11.817,16.31,10.111c3.528-0.828,6.523-2.98,8.433-6.061c1.91-3.081,2.505-6.72,1.677-10.249l0,0
				c-0.827-3.529-2.979-6.524-6.061-8.433C213.525,324.88,211.072,324.186,208.576,324.186z"/>
		</g>
		<path style="fill:#B55B52;" d="M272.492,194.414l2.93-0.284c1.102-0.107,2.187,0.326,2.914,1.161l3.396,3.903
			c1.358,1.56,1.875,3.682,1.389,5.692l-0.301,1.245c-4.827,0.803-10.636-1.886-10.636-1.886l-1.741-0.583
			c-1.55-0.52-2.374-2.08-1.891-3.585l1.11-3.464C270.046,195.417,271.172,194.541,272.492,194.414z"/>
	</g>
</g>
<g id="Thought">
	<g>
		<g>
			
				<ellipse transform="matrix(0.1602 -0.9871 0.9871 0.1602 182.0539 421.2049)" style="fill:#FFFFFF;" cx="338.56" cy="103.613" rx="10.851" ry="10.851"/>
			<path style="fill:#407BFF;" d="M338.56,115.626c-6.624,0-12.013-5.389-12.013-12.013c0-6.624,5.389-12.013,12.013-12.013
				c6.624,0,12.013,5.389,12.013,12.013C350.573,110.237,345.185,115.626,338.56,115.626z M338.56,93.924
				c-5.342,0-9.688,4.347-9.688,9.689c0,5.342,4.347,9.689,9.688,9.689c5.342,0,9.689-4.346,9.689-9.689
				C348.249,98.271,343.902,93.924,338.56,93.924z"/>
		</g>
		<g>
			<circle style="fill:#FFFFFF;" cx="312.771" cy="115.951" r="6.093"/>
			<path style="fill:#407BFF;" d="M312.771,123.206c-4,0-7.255-3.255-7.255-7.255c0-4,3.255-7.255,7.255-7.255
				s7.255,3.255,7.255,7.255C320.025,119.951,316.771,123.206,312.771,123.206z M312.771,111.02c-2.719,0-4.931,2.212-4.931,4.931
				c0,2.719,2.212,4.931,4.931,4.931c2.719,0,4.931-2.212,4.931-4.931C317.701,113.232,315.489,111.02,312.771,111.02z"/>
		</g>
		<g>
			<g>
				<path style="fill:#FFFFFF;" d="M429.383,114.104c-2.956-12.617-14.272-22.015-27.79-22.015c-11.566,0-21.518,6.881-26.005,16.77
					c-0.825-0.157-1.674-0.247-2.545-0.247c-7.47,0-13.525,6.056-13.525,13.525c0,1.465,0.24,2.873,0.671,4.194
					c-4.355,4.19-7.07,10.073-7.07,16.594c0,12.719,10.311,23.03,23.03,23.03c4.282,0,8.288-1.173,11.723-3.208
					c3.833,2.848,8.58,4.534,13.721,4.534c7.096,0,13.44-3.211,17.664-8.257c1.439,0.282,2.925,0.433,4.447,0.433
					c12.719,0,23.03-10.311,23.03-23.03C446.734,125.668,439.355,116.634,429.383,114.104z"/>
				<path style="fill:#407BFF;" d="M401.593,168.444c-4.979,0-9.732-1.49-13.794-4.316c-3.559,1.959-7.57,2.99-11.65,2.99
					c-13.34,0-24.192-10.853-24.192-24.192c0-6.396,2.451-12.38,6.918-16.93c-0.345-1.264-0.52-2.559-0.52-3.858
					c0-8.099,6.589-14.688,14.688-14.688c0.611,0,1.236,0.042,1.866,0.124c4.975-10.142,15.352-16.646,26.685-16.646
					c13.635,0,25.359,9.106,28.754,22.233c10.368,2.95,17.55,12.418,17.55,23.267c0,13.34-10.853,24.192-24.192,24.192
					c-1.332,0-2.675-0.112-4-0.333C415.104,165.48,408.543,168.444,401.593,168.444z M387.871,161.585
					c0.244,0,0.488,0.077,0.693,0.229c3.791,2.816,8.296,4.305,13.028,4.305c6.487,0,12.601-2.858,16.772-7.841
					c0.272-0.325,0.694-0.477,1.115-0.395c1.395,0.273,2.815,0.412,4.224,0.412c12.058,0,21.868-9.81,21.868-21.868
					c0-10.02-6.775-18.736-16.476-21.196c-0.42-0.107-0.746-0.439-0.846-0.861c-2.913-12.434-13.875-21.118-26.658-21.118
					c-10.72,0-20.513,6.315-24.947,16.088c-0.222,0.488-0.742,0.765-1.276,0.661c-0.79-0.15-1.573-0.227-2.327-0.227
					c-6.817,0-12.363,5.546-12.363,12.363c0,1.294,0.207,2.585,0.614,3.834c0.138,0.424,0.022,0.889-0.3,1.198
					c-4.329,4.164-6.713,9.76-6.713,15.757c0,12.058,9.81,21.868,21.868,21.868c3.92,0,7.769-1.053,11.13-3.046
					C387.462,161.639,387.667,161.585,387.871,161.585z"/>
			</g>
			<g>
				<g>
					<path style="fill:#FFFFFF;" d="M417.814,123.398c0,4.244-1.477,8.136-3.939,11.198c-1.441,1.788-2.605,3.767-3.439,5.867
						c-0.703,1.77-2.391,2.95-4.296,2.95h-12.504c-1.9,0-3.59-1.173-4.291-2.939c-0.854-2.151-2.034-4.182-3.487-6.031
						c-2.606-3.306-4.063-7.554-3.787-12.151c0.534-8.878,7.678-16.109,16.552-16.733
						C409.093,104.816,417.814,113.09,417.814,123.398z"/>
					<path style="fill:#407BFF;" d="M406.14,144.575h-12.504c-2.377,0-4.485-1.441-5.371-3.672
						c-0.809-2.034-1.926-3.966-3.321-5.741c-2.881-3.656-4.314-8.251-4.033-12.939c0.571-9.495,8.151-17.157,17.632-17.824
						c5.343-0.381,10.458,1.417,14.367,5.059c3.856,3.592,6.067,8.672,6.067,13.939c0,4.327-1.49,8.562-4.196,11.927
						c-1.378,1.71-2.477,3.583-3.265,5.568C410.627,143.129,408.517,144.575,406.14,144.575z M399.941,106.674
						c-0.41,0-0.822,0.015-1.236,0.044c-8.32,0.585-14.974,7.311-15.475,15.644c-0.247,4.118,1.011,8.152,3.54,11.362
						c1.534,1.952,2.764,4.079,3.654,6.321c0.532,1.34,1.792,2.206,3.211,2.206h12.504c1.419,0,2.681-0.87,3.216-2.217
						c0.874-2.202,2.091-4.276,3.614-6.168c2.409-2.995,3.683-6.615,3.683-10.469c0-4.624-1.942-9.085-5.327-12.239
						C408.194,108.243,404.191,106.674,399.941,106.674z"/>
				</g>
				<path style="fill:#407BFF;" d="M405.337,149.918h-10.823c-0.78,0-1.412-0.632-1.412-1.412v-0.774
					c0-0.78,0.632-1.412,1.412-1.412h10.823c0.78,0,1.412,0.632,1.412,1.412v0.774C406.749,149.286,406.117,149.918,405.337,149.918
					z"/>
				<path style="fill:#407BFF;" d="M403.341,154.761h-6.831c-0.78,0-1.412-0.632-1.412-1.412v-0.774c0-0.78,0.632-1.412,1.412-1.412
					h6.831c0.78,0,1.412,0.632,1.412,1.412v0.774C404.753,154.129,404.121,154.761,403.341,154.761z"/>
			</g>
		</g>
	</g>
</g>
</svg>
