<svg xmlns="http://www.w3.org/2000/svg" version="1.1" xmlns:xlink="http://www.w3.org/1999/xlink" width="2000" height="1500" viewBox="0 0 2000 1500"><rect width="2000" height="1500" x="0" y="0" id="background" stroke="transparent" fill="#010c80"></rect><svg xml:space="preserve" width="1500" height="1125" data-version="2" data-id="lg_qJhW8bTXvaMvSwox8u" viewBox="0 0 438 317" x="250" y="187.5"><rect width="100%" height="100%" fill="transparent"></rect><path fill="#fff" d="M14.22 254.698H4.65l30.28-71.72h8.97l30.18 71.72h-9.56l-25.1-62.36zm44.32-23.51H20.19v-7.37h38.35zm67.26 42.93h-8.37v-30.63l.75.8q-2.19 5.88-7.27 8.74-5.08 2.86-10.81 2.86-6.53 0-11.53-3.43-5.01-3.44-7.8-9.77-2.79-6.32-2.79-14.94 0-8.61 2.82-14.91 2.81-6.3 7.79-9.72 4.98-3.41 11.51-3.41 5.28 0 10.46 2.64 5.18 2.64 7.82 8.92l-.45.4v-10.76h7.87zm-23.51-25.2q4.23 0 7.72-2.19 3.49-2.19 5.58-6.85t2.09-11.93q0-10.85-4.48-16.06-4.49-5.2-10.81-5.2-6.67 0-10.96 5.5-4.28 5.5-4.28 15.76 0 9.96 4.13 15.47 4.14 5.5 11.01 5.5m55.8 6.97q-5.63 0-9.76-2.54-4.14-2.54-6.38-7.27-2.24-4.73-2.24-11.3v-33.87h8.37v33.22q0 6.57 2.49 10.68 2.49 4.11 8.96 4.11 4.83 0 8.37-2.49 3.54-2.49 5.5-7.47 1.97-4.98 1.97-12.45v-25.6h8.37v53.79h-7.87v-12.65l.35 2.19q-2.09 4.98-6.75 8.32-4.66 3.33-11.38 3.33m54.36 0q-5.38 0-9.34-2.06-3.96-2.07-6.1-5.66-2.15-3.58-2.15-8.11 0-4.84 2.84-8.92t8.79-6.55q5.96-2.46 15.27-2.46h8.96l-.89.89v-2.94q0-6.47-2.59-9.93t-8.67-3.46q-5.73 0-8.81 2.96-3.09 2.96-3.29 7.94l-9.41-2.14q.44-4.33 3.31-7.89 2.86-3.56 7.67-5.71 4.8-2.14 11.13-2.14 6.52 0 10.63 2.47 4.11 2.46 6.05 7.1 1.95 4.63 1.95 11.15v24.56q0 1.64.47 2.19.47.54 2.02.54h3.03v6.98h-5.33q-3.38 0-5.67-2.12t-2.29-5.35v-3.79h1.24q-.8 2.09-2.29 4.26t-3.78 4.03q-2.3 1.87-5.46 3.02-3.16 1.14-7.29 1.14m1.89-6.97q4.13 0 7.67-2.04 3.53-2.04 5.7-6.4 2.17-4.36 2.17-11.33v-.45h-8.42q-6.62 0-10.43 1.74-3.81 1.75-5.41 4.31-1.59 2.57-1.59 5.11 0 2.54 1.14 4.58 1.15 2.04 3.44 3.26 2.29 1.22 5.73 1.22m55.2 5.78h-8.12q-3.19 0-5.58-2.12t-2.39-5.35v-67.24h8.37v65q0 1.64.47 2.19.48.54 2.02.54h5.23zm31.2 1.19q-7.67 0-13.28-3.43-5.6-3.44-8.64-9.74-3.04-6.3-3.04-14.87 0-8.61 3.04-14.94 3.04-6.32 8.57-9.76 5.53-3.44 13-3.44 4.28 0 8.59 1.37t7.87 4.73q3.56 3.37 5.73 9.22 2.16 5.85 2.16 14.77h-43.58v-6.78h36.31l-2.39 3.14q-.25-7.07-2.29-11.36-2.04-4.28-5.31-6.2-3.26-1.91-7.24-1.91-4.73 0-8.17 2.46-3.44 2.47-5.28 7.2-1.84 4.73-1.84 11.55 0 10.06 4.11 15.54 4.11 5.48 11.68 5.48 5.43 0 9.14-2.74 3.71-2.74 5.45-7.92l8.22 2.79q-1.95 4.68-5.18 7.99-3.24 3.32-7.7 5.08-4.46 1.77-9.93 1.77m43.69-1.19h-8.36v-53.79h7.87v12.15l-.35-2.19q2.14-4.63 6.77-7.89 4.63-3.27 11.26-3.27 5.72 0 9.86 2.54 4.13 2.54 6.37 7.25t2.24 11.33v33.87h-8.36v-33.22q0-6.63-2.72-10.71-2.71-4.08-8.94-4.08-6.72 0-11.18 5.1-4.46 5.11-4.46 14.77zm67.96 1.19q-5.83 0-10.59-1.91-4.75-1.92-7.89-5.83-3.14-3.91-4.18-9.94l8.76-1.69q.55 6.32 4.31 9.41t9.44 3.09q5.62 0 8.96-2.84 3.34-2.84 3.34-6.92 0-3.49-2.37-5.53-2.36-2.04-6.85-2.89l-6.52-1.24q-2.64-.5-5.48-1.4-2.84-.89-5.3-2.49-2.47-1.59-3.99-4.18t-1.52-6.53q0-5.28 2.77-8.64 2.76-3.36 7.32-5 4.56-1.65 9.84-1.65 5.77 0 10.06 1.8 4.28 1.79 6.97 5.13 2.69 3.33 3.59 8.06l-9.22 1.85q-.35-3.04-1.62-5.28t-3.68-3.46q-2.42-1.22-6.25-1.22-4.64 0-7.97 1.94-3.34 1.94-3.34 5.88 0 2.19 1.12 3.73t3.39 2.57q2.26 1.02 5.7 1.76l6.62 1.4q4.19.85 7.72 2.51 3.54 1.67 5.68 4.61 2.14 2.94 2.14 7.77 0 5.33-2.66 9.19-2.67 3.86-7.37 5.9-4.71 2.04-10.93 2.04M104.612 98.318c3.985-57.011 51.432-87.748 94.017-87.748 18.942 0 35.97 5.765 49.2 16.684 13.761 11.343 19.207 24.653 14.93 36.554a26.035 26.035 0 0 1-24.015 17.056 23.112 23.112 0 0 1-12.593-3.72c3.188-.93 7.2-2.656 9.644-6.853a13.283 13.283 0 0 0 1.195-12.061 15.94 15.94 0 0 0-9.67-8.502 26.566 26.566 0 0 0-6.668-.903c-10.732 0-23.272 7.625-23.272 29.117 0 49.678 83.152 64.29 136.682 65.325h9.803v-7.385h-3.719c-46.81 0-135.3-12.114-135.3-57.914 0-13.602 5.897-21.704 15.806-21.704q2.338 0 4.729.637c1.142.32 3.799 1.913 4.729 4.171q1.01 2.391-.797 5.5c-1.435 2.523-4.65 3.32-7.226 3.958-1.966.478-6.535 1.594-5.712 5.844q.69 3.533 4.49 6.217a30.817 30.817 0 0 0 17.879 5.738c13.628 0 26.406-9.033 31.055-21.997 5.393-15.036-.903-31.348-17.214-44.817-14.612-12.034-33.261-18.383-53.93-18.383-45.959 0-97.125 33.18-101.428 94.68a480.845 480.845 0 0 0-.32 45.429h7.44a478.188 478.188 0 0 1 .318-44.923m232.745 53.504c-6.96-2.444-14.186-4.968-21.917-4.968-6.03 0-11.503 2.178-16.816 4.25-4.862 1.94-9.458 3.746-14.08 3.746-4.623 0-9.219-1.806-14.08-3.72-5.314-2.098-10.786-4.25-16.817-4.25-6.03 0-11.503 2.152-16.816 4.25-4.862 1.914-9.457 3.72-14.08 3.72-4.622 0-9.192-1.806-14.08-3.72-5.287-2.098-10.76-4.25-16.79-4.25-6.03 0-11.53 2.126-16.816 4.25-4.888 1.914-9.484 3.72-14.08 3.72-4.622 0-9.218-1.806-14.08-3.72-5.313-2.098-10.786-4.25-16.816-4.25-7.678 0-15.01 2.63-22.13 5.18q-3.852 1.409-7.438 2.524v7.784a151.426 151.426 0 0 0 9.962-3.294c6.509-2.338 13.23-4.755 19.606-4.755 4.596 0 9.192 1.806 14.08 3.719 5.313 2.125 10.759 4.25 16.816 4.25 6.057 0 11.503-2.125 16.816-4.25 4.862-1.913 9.458-3.72 14.08-3.72 4.623 0 9.192 1.807 14.08 3.72 5.287 2.125 10.76 4.25 16.79 4.25 6.03 0 11.53-2.125 16.816-4.25 4.862-1.913 9.458-3.72 14.08-3.72 4.623 0 9.219 1.807 14.08 3.72 5.313 2.125 10.786 4.25 16.817 4.25 6.03 0 11.503-2.125 16.816-4.25 4.861-1.913 9.457-3.72 14.08-3.72 6.482 0 12.751 2.206 19.446 4.517q4.357 1.567 8.9 2.87v-7.758q-3.188-.983-6.43-2.125M57.79 295.748q0 3.61-1.32 6.04-1.31 2.42-3.81 3.65-2.5 1.22-6.06 1.22h-5.81v-21.42h6.46q3.26 0 5.62 1.2 2.36 1.19 3.64 3.53 1.28 2.33 1.28 5.78m-2.62.08q0-2.88-.96-4.76-.96-1.87-2.81-2.79-1.85-.91-4.53-.91h-3.59v17.15h3.03q4.42 0 6.64-2.18 2.22-2.18 2.22-6.51m7.02-5.23h2.43v16.06h-2.43zm1.24-6q.6 0 1.04.39.43.39.43 1.21 0 .8-.43 1.2-.44.39-1.04.39-.63 0-1.04-.39-.42-.4-.42-1.2 0-.82.42-1.21.41-.39 1.04-.39m12.64 22.06h-2.78l-6.09-16.06h2.61l3.53 9.72q.36.99.74 2.19.38 1.21.53 1.94h.1q.18-.73.59-1.94t.75-2.19l3.53-9.72h2.6zm14.86-16.35q2.05 0 3.51.91 1.47.91 2.24 2.54.78 1.63.78 3.82v1.51H86.37q.05 2.82 1.41 4.3 1.36 1.48 3.84 1.48 1.52 0 2.69-.28 1.17-.27 2.43-.82v2.14q-1.21.54-2.41.79-1.19.25-2.82.25-2.31 0-4.03-.94-1.72-.95-2.67-2.78-.96-1.83-.96-4.48 0-2.59.87-4.49.88-1.9 2.47-2.92 1.58-1.03 3.74-1.03m-.03 1.99q-1.95 0-3.11 1.28-1.15 1.27-1.37 3.56h8.49q-.01-1.44-.44-2.53-.44-1.09-1.32-1.7-.87-.61-2.25-.61m18.49-1.7h2.43v16.06h-2.43zm1.24-6q.6 0 1.03.39.44.39.44 1.21 0 .8-.44 1.2-.43.39-1.03.39-.63 0-1.05-.39-.41-.4-.41-1.2 0-.82.41-1.21.42-.39 1.05-.39m13.93 5.71q2.86 0 4.32 1.4 1.47 1.4 1.47 4.49v10.46h-2.41v-10.3q0-2.01-.91-3-.92-1-2.81-1-2.66 0-3.75 1.51-1.08 1.51-1.08 4.38v8.41h-2.43v-16.06h1.96l.37 2.32h.13q.51-.85 1.3-1.43t1.78-.88q.98-.3 2.06-.3m15.98 14.65q.6 0 1.23-.1t1.03-.25v1.89q-.43.19-1.18.32-.76.13-1.47.13-1.28 0-2.32-.44-1.04-.45-1.66-1.52-.62-1.07-.62-2.96v-9.52h-2.29v-1.19l2.3-.95.97-3.49h1.46v3.72h4.71v1.91h-4.71v9.45q0 1.51.7 2.25.7.75 1.85.75m19.35-6.36q0 1.98-.51 3.53-.51 1.56-1.48 2.63-.97 1.06-2.34 1.63-1.37.56-3.09.56-1.62 0-2.96-.56-1.34-.57-2.31-1.63-.97-1.07-1.51-2.63-.53-1.55-.53-3.53 0-2.63.89-4.49.89-1.85 2.56-2.82 1.66-.98 3.96-.98 2.2 0 3.84.98 1.65.98 2.57 2.84.91 1.85.91 4.47m-12.21 0q0 1.94.51 3.36t1.58 2.19q1.07.78 2.75.78 1.67 0 2.75-.78 1.08-.77 1.59-2.19t.51-3.36q0-1.92-.51-3.31-.51-1.4-1.58-2.17-1.07-.76-2.77-.76-2.5 0-3.67 1.66-1.16 1.65-1.16 4.58m33.73-11.47q-1.77 0-3.18.61-1.42.61-2.41 1.76-.99 1.15-1.51 2.77-.53 1.63-.53 3.67 0 2.69.84 4.68.84 1.98 2.52 3.07 1.68 1.08 4.2 1.08 1.43 0 2.7-.24 1.27-.24 2.47-.61v2.17q-1.17.44-2.46.65-1.29.21-3.06.21-3.27 0-5.46-1.35-2.19-1.36-3.28-3.83-1.09-2.48-1.09-5.85 0-2.43.68-4.44.68-2.02 1.99-3.48 1.31-1.47 3.22-2.27 1.92-.79 4.39-.79 1.63 0 3.14.32 1.5.32 2.72.92l-1 2.11q-1.02-.47-2.24-.81-1.23-.35-2.65-.35m23.22 11.47q0 1.98-.51 3.53-.52 1.56-1.48 2.63-.97 1.06-2.34 1.63-1.37.56-3.1.56-1.61 0-2.95-.56-1.34-.57-2.31-1.63-.98-1.07-1.51-2.63-.54-1.55-.54-3.53 0-2.63.9-4.49.89-1.85 2.55-2.82 1.67-.98 3.97-.98 2.19 0 3.84.98t2.56 2.84q.92 1.85.92 4.47m-12.22 0q0 1.94.52 3.36.51 1.42 1.58 2.19 1.07.78 2.75.78 1.67 0 2.75-.78 1.07-.77 1.59-2.19.51-1.42.51-3.36 0-1.92-.51-3.31-.52-1.4-1.58-2.17-1.07-.76-2.77-.76-2.51 0-3.67 1.66-1.17 1.65-1.17 4.58m22.43-8.26q2.87 0 4.26 1.29 1.39 1.29 1.39 4.12v10.91h-1.77l-.47-2.37h-.11q-.68.88-1.41 1.47-.73.59-1.69.89-.96.3-2.35.3-1.47 0-2.6-.51-1.14-.51-1.79-1.55-.65-1.04-.65-2.64 0-2.4 1.9-3.69 1.91-1.29 5.8-1.41l2.77-.11v-.99q0-2.08-.89-2.91-.9-.84-2.52-.84-1.26 0-2.4.37-1.15.37-2.17.86l-.75-1.84q1.08-.56 2.49-.95 1.41-.4 2.96-.4m3.25 9.89v-1.48l-2.45.1q-3 .12-4.23.98-1.23.87-1.23 2.45 0 1.38.84 2.04.83.65 2.21.65 2.14 0 3.5-1.18 1.36-1.19 1.36-3.56m17.8 2.04q0 1.53-.77 2.58t-2.2 1.58q-1.43.52-3.4.52-1.69 0-2.92-.26t-2.15-.75v-2.24q.98.48 2.34.88 1.36.39 2.79.39 2.08 0 3.01-.67.94-.67.94-1.83 0-.66-.37-1.16-.38-.51-1.26-.99-.87-.47-2.43-1.04-1.54-.59-2.66-1.17t-1.72-1.41q-.61-.84-.61-2.17 0-2.04 1.65-3.13 1.64-1.09 4.32-1.09 1.45 0 2.72.29 1.27.28 2.37.77l-.82 1.94q-1-.42-2.13-.71-1.12-.3-2.3-.3-1.68 0-2.58.56-.9.56-.9 1.52 0 .75.41 1.23.42.49 1.34.91.93.43 2.44 1 1.51.56 2.6 1.15 1.1.59 1.7 1.43.59.85.59 2.17m9.1 2.69q.6 0 1.23-.1t1.02-.25v1.89q-.42.19-1.18.32-.75.13-1.47.13-1.27 0-2.31-.44-1.04-.45-1.67-1.52-.62-1.07-.62-2.96v-9.52h-2.28v-1.19l2.3-.95.96-3.49h1.47v3.72h4.7v1.91h-4.7v9.45q0 1.51.69 2.25.7.75 1.86.75m11.51-14.62q2.87 0 4.26 1.29 1.39 1.29 1.39 4.12v10.91h-1.77l-.47-2.37h-.11q-.68.88-1.41 1.47-.73.59-1.69.89-.96.3-2.35.3-1.47 0-2.6-.51-1.14-.51-1.79-1.55-.65-1.04-.65-2.64 0-2.4 1.9-3.69 1.91-1.29 5.8-1.41l2.77-.11v-.99q0-2.08-.89-2.91-.9-.84-2.52-.84-1.26 0-2.4.37-1.15.37-2.17.86l-.75-1.84q1.08-.56 2.49-.95 1.41-.4 2.96-.4m3.25 9.89v-1.48l-2.44.1q-3.01.12-4.24.98-1.23.87-1.23 2.45 0 1.38.84 2.04.83.65 2.21.65 2.14 0 3.5-1.18 1.36-1.19 1.36-3.56m9.86-16.36v22.79h-2.45v-22.79zm15.78 22.79h-2.49v-21.42h2.49zm13.12-16.35q2.86 0 4.32 1.4 1.47 1.4 1.47 4.49v10.46h-2.41v-10.3q0-2.01-.91-3-.92-1-2.81-1-2.66 0-3.75 1.51-1.08 1.51-1.08 4.38v8.41h-2.43v-16.06h1.96l.37 2.32h.13q.51-.85 1.3-1.43t1.78-.88q.98-.3 2.06-.3m21.18 11.96q0 1.53-.77 2.58t-2.19 1.58q-1.43.52-3.41.52-1.68 0-2.91-.26-1.23-.26-2.16-.75v-2.24q.98.48 2.35.88 1.36.39 2.78.39 2.08 0 3.02-.67.93-.67.93-1.83 0-.66-.37-1.16-.37-.51-1.25-.99-.88-.47-2.43-1.04-1.54-.59-2.66-1.17t-1.73-1.41q-.61-.84-.61-2.17 0-2.04 1.65-3.13 1.65-1.09 4.33-1.09 1.45 0 2.72.29 1.26.28 2.36.77l-.82 1.94q-1-.42-2.12-.71-1.13-.3-2.3-.3-1.69 0-2.59.56-.9.56-.9 1.52 0 .75.42 1.23.42.49 1.34.91.92.43 2.43 1 1.51.56 2.61 1.15 1.1.59 1.69 1.43.59.85.59 2.17m3.91-11.67h2.44v16.06h-2.44zm1.25-6q.6 0 1.03.39.43.39.43 1.21 0 .8-.43 1.2-.43.39-1.03.39-.63 0-1.05-.39-.42-.4-.42-1.2 0-.82.42-1.21t1.05-.39m10.81 29.27q-3.16 0-4.88-1.18-1.71-1.18-1.71-3.31 0-1.5.96-2.57.96-1.07 2.66-1.42-.63-.3-1.08-.88-.45-.59-.45-1.35 0-.88.49-1.55.49-.66 1.5-1.28-1.26-.51-2.04-1.73-.78-1.23-.78-2.85 0-1.73.72-2.96.71-1.22 2.08-1.86 1.36-.65 3.29-.65.43 0 .86.04t.83.1q.39.07.68.16h5.51v1.56l-2.96.37q.44.57.74 1.38.29.8.29 1.78 0 2.41-1.63 3.82-1.62 1.41-4.47 1.41-.67 0-1.37-.11-.72.39-1.09.87-.38.49-.38 1.12 0 .47.29.74.28.28.83.41.54.12 1.3.12h2.83q2.62 0 4.02 1.1 1.4 1.1 1.4 3.21 0 2.66-2.17 4.09-2.17 1.42-6.27 1.42m.07-1.91q1.99 0 3.31-.4 1.31-.4 1.96-1.16.65-.75.65-1.79 0-.97-.44-1.46t-1.29-.66q-.85-.17-2.08-.17h-2.78q-1.09 0-1.89.34-.81.34-1.24 1-.43.65-.43 1.64 0 1.3 1.1 1.98 1.1.68 3.13.68m.63-12.83q1.75 0 2.62-.88.88-.88.88-2.56 0-1.8-.89-2.7-.89-.91-2.64-.91-1.67 0-2.57.93-.9.93-.9 2.72 0 1.64.91 2.52.91.88 2.59.88m11.11-15.26h2.43v6.81q0 .58-.03 1.18-.03.59-.1 1.09h.16q.5-.85 1.26-1.43.77-.58 1.75-.88.99-.3 2.08-.3 1.94 0 3.23.62 1.3.61 1.95 1.9.65 1.29.65 3.34v10.46h-2.4v-10.3q0-2.01-.91-3-.92-1-2.81-1-1.79 0-2.85.68t-1.52 2q-.46 1.32-.46 3.23v8.39h-2.43zm23.58 21.09q.6 0 1.23-.1t1.03-.25v1.89q-.43.19-1.18.32-.76.13-1.48.13-1.27 0-2.31-.44-1.04-.45-1.66-1.52-.62-1.07-.62-2.96v-9.52h-2.29v-1.19l2.3-.95.97-3.49h1.46v3.72h4.7v1.91h-4.7v9.45q0 1.51.7 2.25.69.75 1.85.75m15.89-2.69q0 1.53-.77 2.58-.76 1.05-2.19 1.58-1.43.52-3.41.52-1.68 0-2.91-.26-1.23-.26-2.16-.75v-2.24q.98.48 2.35.88 1.36.39 2.78.39 2.08 0 3.02-.67t.94-1.83q0-.66-.38-1.16-.37-.51-1.25-.99-.88-.47-2.43-1.04-1.54-.59-2.66-1.17t-1.73-1.41q-.61-.84-.61-2.17 0-2.04 1.65-3.13 1.65-1.09 4.33-1.09 1.45 0 2.72.29 1.26.28 2.36.77l-.82 1.94q-.99-.42-2.12-.71-1.13-.3-2.3-.3-1.69 0-2.59.56-.9.56-.9 1.52 0 .75.42 1.23.42.49 1.34.91.92.43 2.43 1 1.51.56 2.61 1.15 1.1.59 1.69 1.43.59.85.59 2.17"></path></svg></svg>